<svg width="50" height="50" viewBox="0 0 50 50" fill="none" xmlns="http://www.w3.org/2000/svg">
<circle cx="25" cy="25" r="10" stroke="black" stroke-width="4"/>
<path fill-rule="evenodd" clip-rule="evenodd" d="M20.777 13.7115C19.2999 14.2607 17.9455 15.0955 16.791 16.1681L24.9591 24.9591L33.1272 33.7501C34.2817 32.6775 35.2136 31.388 35.8696 29.9552C36.5257 28.5224 36.8932 26.9744 36.951 25.3996C37.0089 23.8248 36.756 22.254 36.2068 20.777C35.6576 19.2999 34.8228 17.9455 33.7501 16.791C32.6775 15.6366 31.388 14.7047 29.9552 14.0486C28.5224 13.3925 26.9744 13.0251 25.3996 12.9672C23.8248 12.9094 22.254 13.1623 20.777 13.7115ZM28 24C29.1046 24 30 23.1046 30 22C30 20.8954 29.1046 20 28 20C26.8954 20 26 20.8954 26 22C26 23.1046 26.8954 24 28 24Z" fill="black"/>
</svg>
