<svg width="32" height="32" viewBox="0 0 32 32" fill="none" xmlns="http://www.w3.org/2000/svg">
<path d="M0 4.83333V1.56667H0.5V1.06667V0.5H1.06667H1.56667V0H4.83333V0.5H5.33333H7.46667H7.96667V0H11.2333V0.5H11.7333H13.8667H14.3667V0H17.6333V0.5H18.1333H20.2667H20.7667V0H24.0333V0.5H24.5333H26.6667H27.1667V0H30.4333V0.5H30.9333H31.5V1.06667V1.56667H32V4.83333H31.5V5.33333V7.46667V7.96667H32V11.2333H31.5V11.7333V13.8667V14.3667H32V17.6333H31.5V18.1333V20.2667V20.7667H32V24.0333H31.5V24.5333V26.6667V27.1667H32V30.4333H31.5V30.9333V31.5H30.9333H30.4333V32H27.1667V31.5H26.6667H24.5333H24.0333V32H20.7667V31.5H20.2667H18.1333H17.6333V32H14.3667V31.5H13.8667H11.7333H11.2333V32H7.96667V31.5H7.46667H5.33333H4.83333V32H1.56667V31.5H1.06667H0.5V30.9333V30.4333H0V27.1667H0.5V26.6667V24.5333V24.0333H0V20.7667H0.5V20.2667V18.1333V17.6333H0V14.3667H0.5V13.8667V11.7333V11.2333H0V7.96667H0.5V7.46667V5.33333V4.83333H0Z" stroke="#EA7B7D" stroke-linecap="square" stroke-dasharray="2 4"/>
</svg>
